<?xml version="1.0" encoding="UTF-8" standalone="no"?>
<!-- Created with Inkscape (http://www.inkscape.org/) -->

<svg
   xmlns:dc="http://purl.org/dc/elements/1.1/"
   xmlns:cc="http://creativecommons.org/ns#"
   xmlns:rdf="http://www.w3.org/1999/02/22-rdf-syntax-ns#"
   xmlns:svg="http://www.w3.org/2000/svg"
   xmlns="http://www.w3.org/2000/svg"
   xmlns:sodipodi="http://sodipodi.sourceforge.net/DTD/sodipodi-0.dtd"
   xmlns:inkscape="http://www.inkscape.org/namespaces/inkscape"
   width="37mm"
   height="52mm"
   viewBox="0 0 37 52"
   version="1.1"
   id="svg8"
   inkscape:version="0.92.3 (2405546, 2018-03-11)"
   sodipodi:docname="Logoprintfood.svg">
  <defs
     id="defs2" />
  <sodipodi:namedview
     id="base"
     pagecolor="#ffffff"
     bordercolor="#666666"
     borderopacity="1.0"
     inkscape:pageopacity="0.0"
     inkscape:pageshadow="2"
     inkscape:zoom="1.2885714"
     inkscape:cx="110.86064"
     inkscape:cy="76.121796"
     inkscape:document-units="mm"
     inkscape:current-layer="layer1"
     showgrid="false"
     inkscape:window-width="1920"
     inkscape:window-height="1001"
     inkscape:window-x="-9"
     inkscape:window-y="-9"
     inkscape:window-maximized="1"
     units="mm" />
  <metadata
     id="metadata5">
    <rdf:RDF>
      <cc:Work
         rdf:about="">
        <dc:format>image/svg+xml</dc:format>
        <dc:type
           rdf:resource="http://purl.org/dc/dcmitype/StillImage" />
        <dc:title></dc:title>
      </cc:Work>
    </rdf:RDF>
  </metadata>
  <g
     inkscape:label="Calque 1"
     inkscape:groupmode="layer"
     id="layer1"
     transform="translate(0,-245)">
    <rect
       style="fill:#ff7f2a;stroke-width:0.10253898"
       id="rect10"
       width="4.3945279"
       height="21.093733"
       x="2.0648637"
       y="272.92209" />
    <rect
       style="fill:#ff7f2a;stroke-width:0.13495478"
       id="rect12"
       width="21.412626"
       height="3.6076283"
       x="0.40933216"
       y="-273.02304"
       ry="0.93840563"
       transform="matrix(0.99999323,-0.00368082,-0.00368082,-0.99999323,0,0)"
       rx="0" />
    <rect
       style="fill:#803300;stroke-width:0.07730366"
       id="rect17"
       width="19.921858"
       height="4.1015587"
       x="2.0648637"
       y="-269.40646"
       transform="scale(1,-1)"
       ry="1.426103" />
    <rect
       style="fill:#aa0000;stroke-width:0.10365356"
       id="rect19"
       width="19.921856"
       height="1.4575782"
       x="2.0648637"
       y="263.84732"
       ry="0.72878915" />
    <rect
       style="fill:#ff7f2a;stroke-width:0.10593898"
       id="rect4544"
       width="21.382038"
       height="2.3070097"
       x="1.4314406"
       y="269.33325"
       ry="0" />
    <path
       sodipodi:type="star"
       style="fill:#ffd42a;stroke-width:0.26458332"
       id="path4558"
       sodipodi:sides="3"
       sodipodi:cx="42.395702"
       sodipodi:cy="60.919804"
       sodipodi:r1="7.9854922"
       sodipodi:r2="7.4136205"
       sodipodi:arg1="1.5707963"
       sodipodi:arg2="2.6179939"
       inkscape:flatsided="true"
       inkscape:rounded="0"
       inkscape:randomized="0"
       d="m 42.395703,68.905296 -6.91564,-11.978238 13.831278,-1e-6 z"
       inkscape:transform-center-x="0.3163948"
       inkscape:transform-center-y="1.0742946"
       transform="matrix(0.87166575,0,0,0.31708547,-20.996286,245.79659)" />
    <rect
       style="fill:#803300;stroke-width:0.10253898"
       id="rect4586"
       width="19.767939"
       height="1.8119986"
       x="2.2187819"
       y="262.03531"
       ry="0.67522234" />
    <path
       sodipodi:type="star"
       style="fill:#008000;stroke-width:0.26458332"
       id="path4562"
       sodipodi:sides="3"
       sodipodi:cx="43.26685"
       sodipodi:cy="94.894447"
       sodipodi:r1="11.578681"
       sodipodi:r2="0.78187621"
       sodipodi:arg1="-1.6528071"
       sodipodi:arg2="-0.60560953"
       inkscape:flatsided="true"
       inkscape:rounded="0.78"
       inkscape:randomized="0"
       d="M 42.318337,83.354682 C 57.908555,82.073242 60.420185,85.700649 53.734835,99.842894 47.049486,113.98514 42.652245,114.34657 33.747376,101.48577 24.842507,88.624961 26.728119,84.636122 42.318337,83.354682 Z"
       inkscape:transform-center-x="-0.073040229"
       inkscape:transform-center-y="0.014226794"
       transform="matrix(0.25153204,0,0,0.12756925,-5.090905,249.66892)" />
    <path
       sodipodi:type="star"
       style="fill:#008000;stroke-width:0.26458332"
       id="path4589"
       sodipodi:sides="3"
       sodipodi:cx="45.299519"
       sodipodi:cy="73.841782"
       sodipodi:r1="6.3503332"
       sodipodi:r2="3.1751666"
       sodipodi:arg1="0.18394346"
       sodipodi:arg2="1.231141"
       inkscape:flatsided="true"
       inkscape:rounded="0.78"
       inkscape:randomized="0"
       d="m 51.542722,75.003308 c -1.569222,8.434565 -3.850779,9.240752 -10.370716,3.664483 -6.519938,-5.576268 -6.077337,-7.955248 2.011822,-10.813545 8.089159,-2.858297 9.928116,-1.285504 8.358894,7.149062 z"
       inkscape:transform-center-x="1.2067569"
       inkscape:transform-center-y="0.65268064"
       transform="matrix(0.02103172,-0.30726044,0.39059134,0.01654469,-11.513732,274.51607)" />
    <path
       sodipodi:type="star"
       style="fill:#008000;stroke-width:0.26458332"
       id="path4591"
       sodipodi:sides="3"
       sodipodi:cx="79.709732"
       sodipodi:cy="79.649414"
       sodipodi:r1="7.0846553"
       sodipodi:r2="3.5423274"
       sodipodi:arg1="0.7998899"
       sodipodi:arg2="1.8470875"
       inkscape:flatsided="true"
       inkscape:rounded="0.78"
       inkscape:randomized="0"
       d="m 84.646218,84.731091 c -6.865343,6.669191 -9.462574,5.932765 -11.805591,-3.347393 -2.343017,-9.280158 -0.406638,-11.161212 8.801723,-8.550245 9.208361,2.610966 9.869212,5.228447 3.003868,11.897638 z"
       inkscape:transform-center-x="-0.1125231"
       inkscape:transform-center-y="0.231748"
       transform="matrix(0.1276177,0,0,0.29041496,11.184365,238.99765)" />
    <path
       sodipodi:type="star"
       style="fill:#008000;stroke-width:0.26458332"
       id="path4593"
       sodipodi:sides="3"
       sodipodi:cx="68.965614"
       sodipodi:cy="79.213844"
       sodipodi:r1="6.3635974"
       sodipodi:r2="3.1817987"
       sodipodi:arg1="2.0446477"
       sodipodi:arg2="3.0918452"
       inkscape:flatsided="true"
       inkscape:rounded="0.78"
       inkscape:randomized="0"
       d="m 66.061799,84.876284 c -7.649955,-3.923054 -7.770535,-6.34491 -0.548094,-11.008438 7.222442,-4.663528 9.380121,-3.557025 9.807634,5.029556 0.427513,8.586582 -1.609586,9.901936 -9.25954,5.978882 z"
       inkscape:transform-center-x="-0.38036489"
       inkscape:transform-center-y="0.26343905"
       transform="matrix(0.15317994,-0.25142416,0.42229154,0.04938724,-29.506813,275.33759)" />
    <path
       sodipodi:type="star"
       style="fill:#008000;stroke-width:0.26458332"
       id="path4595"
       sodipodi:sides="3"
       sodipodi:cx="58.65707"
       sodipodi:cy="89.232002"
       sodipodi:r1="5.4885187"
       sodipodi:r2="2.7442591"
       sodipodi:arg1="0.65408272"
       sodipodi:arg2="1.7012803"
       inkscape:flatsided="true"
       inkscape:rounded="0.78"
       inkscape:randomized="0"
       d="m 63.012794,92.57139 c -4.511512,5.884581 -6.58514,5.61246 -9.42558,-1.236915 -2.840441,-6.849374 -1.567963,-8.509127 5.783989,-7.544334 7.351952,0.964794 8.153102,2.896668 3.641591,8.781249 z"
       inkscape:transform-center-x="-0.16077299"
       inkscape:transform-center-y="0.2091191"
       transform="matrix(0.47850804,0,0,0.2299065,-17.439381,241.12915)" />
    <rect
       style="fill:#ff7f2a;stroke-width:0.12990512"
       id="rect4599"
       width="22.113529"
       height="2.8134265"
       x="0.86833757"
       y="259.0531"
       ry="0" />
    <rect
       style="fill:#ff7f2a;stroke-width:0.1855644"
       id="rect4603"
       width="22.113529"
       height="4.9516311"
       x="0.86833757"
       y="256.91489"
       ry="2.4758153" />
    <path
       style="fill:#e6e6e6;stroke-width:0.10253898"
       id="path4607"
       sodipodi:type="arc"
       sodipodi:cx="-152.06953"
       sodipodi:cy="209.14482"
       sodipodi:rx="0.81589359"
       sodipodi:ry="0.30947688"
       sodipodi:start="0"
       sodipodi:end="6.2706189"
       d="m -151.25364,209.14482 a 0.81589359,0.30947688 0 0 1 -0.81333,0.30948 0.81589359,0.30947688 0 0 1 -0.81844,-0.30753 0.81589359,0.30947688 0 0 1 0.80819,-0.31141 0.81589359,0.30947688 0 0 1 0.82351,0.30557 l -0.81582,0.004 z"
       transform="rotate(-37.329327)" />
    <path
       style="fill:#e6e6e6;stroke-width:0.10253898"
       id="path4609"
       sodipodi:type="arc"
       sodipodi:cx="8.8303347"
       sodipodi:cy="259.61578"
       sodipodi:rx="0.70335662"
       sodipodi:ry="0.33761117"
       sodipodi:start="0"
       sodipodi:end="6.2706189"
       d="m 9.5336913,259.61578 a 0.70335662,0.33761117 0 0 1 -0.701147,0.33761 0.70335662,0.33761117 0 0 1 -0.7055524,-0.33549 0.70335662,0.33761117 0 0 1 0.6967139,-0.33971 0.70335662,0.33761117 0 0 1 0.70993,0.33335 l -0.7033011,0.004 z" />
    <path
       style="fill:#e6e6e6;stroke-width:0.10253898"
       id="path4611"
       sodipodi:type="arc"
       sodipodi:cx="11.559357"
       sodipodi:cy="258.20908"
       sodipodi:rx="0.28134263"
       sodipodi:ry="0.56268525"
       sodipodi:start="0"
       sodipodi:end="6.2706189"
       d="m 11.840699,258.20908 a 0.28134263,0.56268525 0 0 1 -0.280458,0.56268 0.28134263,0.56268525 0 0 1 -0.282221,-0.55915 0.28134263,0.56268525 0 0 1 0.278685,-0.56619 0.28134263,0.56268525 0 0 1 0.283972,0.55559 l -0.28132,0.007 z" />
    <path
       style="fill:#e6e6e6;stroke-width:0.10253898"
       id="path4613"
       sodipodi:type="arc"
       sodipodi:cx="186.61729"
       sodipodi:cy="179.32176"
       sodipodi:rx="0.67522234"
       sodipodi:ry="0.28134263"
       sodipodi:start="0"
       sodipodi:end="6.2706189"
       d="m 187.29252,179.32176 a 0.67522234,0.28134263 0 0 1 -0.6731,0.28134 0.67522234,0.28134263 0 0 1 -0.67733,-0.27957 0.67522234,0.28134263 0 0 1 0.66884,-0.2831 0.67522234,0.28134263 0 0 1 0.68153,0.2778 l -0.67517,0.004 z"
       transform="rotate(42.059901)" />
    <path
       style="fill:#e6e6e6;stroke-width:0.10253898"
       id="path4615"
       sodipodi:type="arc"
       sodipodi:cx="213.9169"
       sodipodi:cy="147.92686"
       sodipodi:rx="0.30947688"
       sodipodi:ry="0.53455102"
       sodipodi:start="0"
       sodipodi:end="6.2706189"
       d="m 214.22638,147.92686 a 0.30947688,0.53455102 0 0 1 -0.30851,0.53455 0.30947688,0.53455102 0 0 1 -0.31044,-0.53119 0.30947688,0.53455102 0 0 1 0.30655,-0.53788 0.30947688,0.53455102 0 0 1 0.31237,0.52781 l -0.30945,0.007 z"
       transform="rotate(51.801315)" />
    <path
       style="fill:#e6e6e6;stroke-width:0.10253898"
       id="path4617"
       sodipodi:type="arc"
       sodipodi:cx="140.11905"
       sodipodi:cy="217.09767"
       sodipodi:rx="0.64708805"
       sodipodi:ry="0.28134263"
       sodipodi:start="0"
       sodipodi:end="6.2706189"
       d="m 140.76614,217.09767 a 0.64708805,0.28134263 0 0 1 -0.64506,0.28134 0.64708805,0.28134263 0 0 1 -0.64911,-0.27957 0.64708805,0.28134263 0 0 1 0.64098,-0.2831 0.64708805,0.28134263 0 0 1 0.65314,0.2778 l -0.64704,0.004 z"
       transform="rotate(29.631535)" />
    <path
       style="fill:#e6e6e6;stroke-width:0.10253898"
       id="path4619"
       sodipodi:type="arc"
       sodipodi:cx="-175.0045"
       sodipodi:cy="192.22722"
       sodipodi:rx="0.67522234"
       sodipodi:ry="0.22507411"
       sodipodi:start="0"
       sodipodi:end="6.2706189"
       d="m -174.32928,192.22722 a 0.67522234,0.22507411 0 0 1 -0.6731,0.22507 0.67522234,0.22507411 0 0 1 -0.67733,-0.22366 0.67522234,0.22507411 0 0 1 0.66884,-0.22648 0.67522234,0.22507411 0 0 1 0.68154,0.22224 l -0.67517,0.003 z"
       transform="rotate(-45.000002)" />
    <path
       style="fill:#e6e6e6;stroke-width:0.10253898"
       id="path4621"
       sodipodi:type="arc"
       sodipodi:cx="9.1960793"
       sodipodi:cy="258.01212"
       sodipodi:rx="0.67522234"
       sodipodi:ry="0.25320837"
       sodipodi:start="0"
       sodipodi:end="6.2706189"
       d="m 9.8713016,258.01212 a 0.67522234,0.25320837 0 0 1 -0.6731011,0.2532 0.67522234,0.25320837 0 0 1 -0.6773303,-0.25161 0.67522234,0.25320837 0 0 1 0.6688453,-0.25479 0.67522234,0.25320837 0 0 1 0.6815328,0.25001 l -0.675169,0.003 z" />
    <path
       style="fill:#ffffff;stroke-width:0.10253898"
       id="path4623"
       sodipodi:type="arc"
       sodipodi:cx="20.942984"
       sodipodi:cy="256.94928"
       sodipodi:rx="8.6339655"
       sodipodi:ry="8.6339655"
       sodipodi:start="0"
       sodipodi:end="6.2706189"
       d="m 29.576949,256.94928 a 8.6339655,8.6339655 0 0 1 -8.606841,8.63392 8.6339655,8.6339655 0 0 1 -8.660919,-8.57967 8.6339655,8.6339655 0 0 1 8.552422,-8.68783 8.6339655,8.6339655 0 0 1 8.714656,8.52508 l -8.633283,0.1085 z" />
    <rect
       style="fill:#ff7f2a;stroke-width:0.10622017"
       id="rect4627"
       width="5.5709853"
       height="40.891048"
       x="29.576269"
       y="254.05565" />
    <rect
       style="fill:#ff7f2a;stroke-width:0.10253898"
       id="rect4629"
       width="7.9571075"
       height="3.491384"
       x="24.88245"
       y="269.33325" />
    <rect
       style="fill:#ff7f2a;stroke-width:0.10891383"
       id="rect4633"
       width="21.485443"
       height="3.5013316"
       x="13.66181"
       y="250.55431" />
    <path
       sodipodi:type="star"
       style="fill:#ff7f2a;stroke-width:0.26458332"
       id="path4637"
       sodipodi:sides="3"
       sodipodi:cx="73.634956"
       sodipodi:cy="81.916458"
       sodipodi:r1="13.964001"
       sodipodi:r2="6.9820008"
       sodipodi:arg1="1.5855011"
       sodipodi:arg2="2.6326987"
       inkscape:flatsided="true"
       inkscape:rounded="0"
       inkscape:randomized="0"
       d="M 73.429626,95.878949 61.645749,74.757392 85.829493,75.113034 Z"
       inkscape:transform-center-x="0.0040503117"
       inkscape:transform-center-y="1.3494256"
       transform="matrix(0.38749806,-0.00627874,0.00627874,0.38749806,-10.67565,225.44013)" />
  </g>
</svg>
